<?xml version="1.0" encoding="utf-8"?>
<!-- Generator: Adobe Illustrator 23.0.1, SVG Export Plug-In . SVG Version: 6.00 Build 0)  -->
<svg version="1.1" id="Layer_1" xmlns="http://www.w3.org/2000/svg" xmlns:xlink="http://www.w3.org/1999/xlink" x="0px" y="0px"
	 viewBox="0 0 20 20.3" style="enable-background:new 0 0 20 20.3;" xml:space="preserve">
<style type="text/css">
	.st0{fill:#054C9C;}
</style>
<path class="st0" d="M10,0.3c-5.5,0-10,4.5-10,10s4.5,10,10,10s10-4.5,10-10S15.5,0.3,10,0.3z M9,18.2c-3.9-0.5-7-3.9-7-7.9
	c0-0.6,0.1-1.2,0.2-1.8L7,13.3v1c0,1.1,0.9,2,2,2V18.2z M15.9,15.7c-0.3-0.8-1-1.4-1.9-1.4h-1v-3c0-0.6-0.4-1-1-1H6v-2h2
	c0.6,0,1-0.5,1-1v-2h2c1.1,0,2-0.9,2-2V2.9c2.9,1.2,5,4.1,5,7.4C18,12.4,17.2,14.3,15.9,15.7z"/>
</svg>
